<?xml version="1.0" encoding="utf-8"?>
<!-- Generator: Adobe Illustrator 26.0.0, SVG Export Plug-In . SVG Version: 6.00 Build 0)  -->
<svg version="1.1" id="Layer_1" xmlns="http://www.w3.org/2000/svg" xmlns:xlink="http://www.w3.org/1999/xlink" x="0px" y="0px"
	 viewBox="0 0 1024 329" style="enable-background:new 0 0 1024 329;" xml:space="preserve">
<style type="text/css">
	.st0{fill:url(#SVGID_1_);}
	.st1{fill:url(#SVGID_00000073699572541527812950000018030385488397720230_);}
	.st2{fill:url(#SVGID_00000101817123186740043740000006807941015043189692_);}
	.st3{fill:url(#SVGID_00000013905632743807987970000010091434912942391223_);}
	.st4{fill:url(#SVGID_00000002371836562086644610000004937021679978419591_);}
	.st5{fill:url(#SVGID_00000101822770457635182720000016560294087718421666_);}
</style>
<g>
	
		<linearGradient id="SVGID_1_" gradientUnits="userSpaceOnUse" x1="1012.8537" y1="-4.0689" x2="160.8857" y2="198.6831" gradientTransform="matrix(1 0 0 -1 0 330)">
		<stop  offset="0" style="stop-color:#7D2AE7"/>
		<stop  offset="0.7708" style="stop-color:#7D2AE7"/>
		<stop  offset="1" style="stop-color:#7D2AE7;stop-opacity:0"/>
	</linearGradient>
	<path class="st0" d="M1016.9,224.5c-1.7,0-3.3,1.1-4.1,3.5c-10.5,30-24.7,47.8-36.4,47.8c-6.7,0-9.4-7.5-9.4-19.2
		c0-29.3,17.6-91.5,26.4-119.9c1-3.4,1.7-6.5,1.7-9.1c0-8.2-4.5-12.3-15.7-12.3c-12,0-25,4.7-37.6,26.8c-4.4-19.5-17.5-28-35.9-28
		c-21.2,0-41.8,13.7-58.7,35.8c-16.9,22.2-36.8,29.4-51.7,25.9c10.8-26.3,14.7-46,14.7-60.6c0-22.9-11.3-36.7-29.6-36.7
		c-27.8,0-43.8,26.5-43.8,54.4c0,21.6,9.8,43.7,31.3,54.5c-18,40.8-44.3,77.6-54.3,77.6c-12.9,0-16.7-63.1-16-108.3
		c0.5-25.9,2.6-27.2,2.6-35.1c0-4.5-2.9-7.6-14.6-7.6c-27.3,0-35.8,23.1-37.1,49.7c-0.4,10.1-2,20.1-4.7,29.8
		c-11.4,40.8-35,71.7-50.3,71.7c-7.1,0-9.1-7.1-9.1-16.4c0-29.3,16.4-66,16.4-97.3c0-23-10.1-37.5-29.1-37.5
		c-22.4,0-52,26.6-80,76.5c9.2-38.2,13-75.2-14.3-75.2c-5.9,0.1-11.7,1.6-16.9,4.4c-3.6,1.7-5.8,5.4-5.5,9.3
		c2.6,40.7-32.8,144.8-66.3,144.8c-6.1,0-9.1-6.6-9.1-17.3c0-29.4,17.5-91.4,26.3-119.9c1.1-3.7,1.7-6.9,1.7-9.6
		c0-7.8-4.8-11.8-15.7-11.8c-12,0-25,4.6-37.5,26.6c-4.4-19.5-17.6-28-35.9-28c-30.2,0-63.8,31.9-78.6,73.5
		c-19.8,55.5-59.8,109.1-113.5,109.1c-48.8,0-74.5-40.6-74.5-104.8c0-92.6,68-168.3,118.4-168.3c24.1,0,35.6,15.4,35.6,38.9
		c0,28.5-15.9,41.8-15.9,52.6c0,3.3,2.8,6.6,8.2,6.6c21.9,0,47.7-25.8,47.7-60.9S217.7,0,167.2,0C83.9,0,0,83.9,0,191.3
		c0,85.5,42.2,137.1,115.1,137.1c49.8,0,93.2-38.7,116.7-83.9c2.7,37.4,19.7,57,45.6,57c23,0,41.7-13.7,55.9-37.8
		c5.5,25.2,20,37.6,38.9,37.6c21.7,0,39.8-13.7,57-39.2c-0.3,20,4.3,38.9,21.7,38.9c8.2,0,18-1.9,19.7-9.1
		c18.3-75.6,63.4-137.3,77.3-137.3c4.1,0,5.2,3.9,5.2,8.6c0,20.5-14.5,62.6-14.5,89.5c0,29,12.3,48.2,37.8,48.2
		c28.3,0,57-34.6,76.1-85.2c6,47.3,18.9,85.4,39.2,85.4c24.9,0,69.1-52.4,95.8-107.8c10.5,1.3,26.3,1,41.4-9.7
		c-6.5,16.3-10.2,34.2-10.2,52.1c0,51.5,24.6,65.9,45.7,65.9c23,0,41.6-13.7,55.9-37.8c4.7,21.8,16.7,37.5,38.9,37.5
		c34.6,0,64.7-35.4,64.7-64.4C1024,229.1,1020.7,224.5,1016.9,224.5z M298.5,273c-14,0-19.5-14.1-19.5-35.1
		c0-36.5,24.9-97.3,51.3-97.3c11.5,0,15.9,13.6,15.9,30.2C346.2,207.8,322.5,273,298.5,273z M777.3,164.2
		c-8.3-9.9-11.4-23.4-11.4-35.5c0-14.8,5.4-27.4,11.9-27.4c6.5,0,8.5,6.4,8.5,15.3C786.3,131.5,781,153.3,777.3,164.2z M885.7,273
		c-14,0-19.5-16.2-19.5-35.1c0-35.2,24.9-97.3,51.5-97.3c11.5,0,15.6,13.5,15.6,30.2C933.3,207.8,910,273,885.7,273z"/>
	
		<radialGradient id="SVGID_00000106862206526325684370000007919752276775519640_" cx="0.4207" cy="677.8965" r="0.512" gradientTransform="matrix(420.0004 -432 -287.1004 -279.1257 194971.9688 189764.0781)" gradientUnits="userSpaceOnUse">
		<stop  offset="0" style="stop-color:#6420FF"/>
		<stop  offset="1" style="stop-color:#6420FF;stop-opacity:0"/>
	</radialGradient>
	<path style="fill:url(#SVGID_00000106862206526325684370000007919752276775519640_);" d="M1016.9,224.5c-1.7,0-3.3,1.1-4.1,3.5
		c-10.5,30-24.7,47.8-36.4,47.8c-6.7,0-9.4-7.5-9.4-19.2c0-29.3,17.6-91.5,26.4-119.9c1-3.4,1.7-6.5,1.7-9.1
		c0-8.2-4.5-12.3-15.7-12.3c-12,0-25,4.7-37.6,26.8c-4.4-19.5-17.5-28-35.9-28c-21.2,0-41.8,13.7-58.7,35.8
		c-16.9,22.2-36.8,29.4-51.7,25.9c10.8-26.3,14.7-46,14.7-60.6c0-22.9-11.3-36.7-29.6-36.7c-27.8,0-43.8,26.5-43.8,54.4
		c0,21.6,9.8,43.7,31.3,54.5c-18,40.8-44.3,77.6-54.3,77.6c-12.9,0-16.7-63.1-16-108.3c0.5-25.9,2.6-27.2,2.6-35.1
		c0-4.5-2.9-7.6-14.6-7.6c-27.3,0-35.8,23.1-37.1,49.7c-0.4,10.1-2,20.1-4.7,29.8c-11.4,40.8-35,71.7-50.3,71.7
		c-7.1,0-9.1-7.1-9.1-16.4c0-29.3,16.4-66,16.4-97.3c0-23-10.1-37.5-29.1-37.5c-22.4,0-52,26.6-80,76.5c9.2-38.2,13-75.2-14.3-75.2
		c-5.9,0.1-11.7,1.6-16.9,4.4c-3.6,1.7-5.8,5.4-5.5,9.3c2.6,40.7-32.8,144.8-66.3,144.8c-6.1,0-9.1-6.6-9.1-17.3
		c0-29.4,17.5-91.4,26.3-119.9c1.1-3.7,1.7-6.9,1.7-9.6c0-7.8-4.8-11.8-15.7-11.8c-12,0-25,4.6-37.5,26.6c-4.4-19.5-17.6-28-35.9-28
		c-30.2,0-63.8,31.9-78.6,73.5c-19.8,55.5-59.8,109.1-113.5,109.1c-48.8,0-74.5-40.6-74.5-104.8c0-92.6,68-168.3,118.4-168.3
		c24.1,0,35.6,15.4,35.6,38.9c0,28.5-15.9,41.8-15.9,52.6c0,3.3,2.8,6.6,8.2,6.6c21.9,0,47.7-25.8,47.7-60.9S217.7,0,167.2,0
		C83.9,0,0,83.9,0,191.3c0,85.5,42.2,137.1,115.1,137.1c49.8,0,93.2-38.7,116.7-83.9c2.7,37.4,19.7,57,45.6,57
		c23,0,41.7-13.7,55.9-37.8c5.5,25.2,20,37.6,38.9,37.6c21.7,0,39.8-13.7,57-39.2c-0.3,20,4.3,38.9,21.7,38.9c8.2,0,18-1.9,19.7-9.1
		c18.3-75.6,63.4-137.3,77.3-137.3c4.1,0,5.2,3.9,5.2,8.6c0,20.5-14.5,62.6-14.5,89.5c0,29,12.3,48.2,37.8,48.2
		c28.3,0,57-34.6,76.1-85.2c6,47.3,18.9,85.4,39.2,85.4c24.9,0,69.1-52.4,95.8-107.8c10.5,1.3,26.3,1,41.4-9.7
		c-6.5,16.3-10.2,34.2-10.2,52.1c0,51.5,24.6,65.9,45.7,65.9c23,0,41.6-13.7,55.9-37.8c4.7,21.8,16.7,37.5,38.9,37.5
		c34.6,0,64.7-35.4,64.7-64.4C1024,229.1,1020.7,224.5,1016.9,224.5z M298.5,273c-14,0-19.5-14.1-19.5-35.1
		c0-36.5,24.9-97.3,51.3-97.3c11.5,0,15.9,13.6,15.9,30.2C346.2,207.8,322.5,273,298.5,273z M777.3,164.2
		c-8.3-9.9-11.4-23.4-11.4-35.5c0-14.8,5.4-27.4,11.9-27.4c6.5,0,8.5,6.4,8.5,15.3C786.3,131.5,781,153.3,777.3,164.2z M885.7,273
		c-14,0-19.5-16.2-19.5-35.1c0-35.2,24.9-97.3,51.5-97.3c11.5,0,15.6,13.5,15.6,30.2C933.3,207.8,910,273,885.7,273z"/>
	
		<radialGradient id="SVGID_00000088844351961451728980000015734805132459822510_" cx="0.9897" cy="676.8499" r="0.512" gradientTransform="matrix(1167.999 103.9999 82.8902 -930.921 -57235.6797 630209.5)" gradientUnits="userSpaceOnUse">
		<stop  offset="0.25" style="stop-color:#00C4CC"/>
		<stop  offset="1" style="stop-color:#00C4CC;stop-opacity:0"/>
	</radialGradient>
	<path style="fill:url(#SVGID_00000088844351961451728980000015734805132459822510_);" d="M1016.9,224.5c-1.7,0-3.3,1.1-4.1,3.5
		c-10.5,30-24.7,47.8-36.4,47.8c-6.7,0-9.4-7.5-9.4-19.2c0-29.3,17.6-91.5,26.4-119.9c1-3.4,1.7-6.5,1.7-9.1
		c0-8.2-4.5-12.3-15.7-12.3c-12,0-25,4.7-37.6,26.8c-4.4-19.5-17.5-28-35.9-28c-21.2,0-41.8,13.7-58.7,35.8
		c-16.9,22.2-36.8,29.4-51.7,25.9c10.8-26.3,14.7-46,14.7-60.6c0-22.9-11.3-36.7-29.6-36.7c-27.8,0-43.8,26.5-43.8,54.4
		c0,21.6,9.8,43.7,31.3,54.5c-18,40.8-44.3,77.6-54.3,77.6c-12.9,0-16.7-63.1-16-108.3c0.5-25.9,2.6-27.2,2.6-35.1
		c0-4.5-2.9-7.6-14.6-7.6c-27.3,0-35.8,23.1-37.1,49.7c-0.4,10.1-2,20.1-4.7,29.8c-11.4,40.8-35,71.7-50.3,71.7
		c-7.1,0-9.1-7.1-9.1-16.4c0-29.3,16.4-66,16.4-97.3c0-23-10.1-37.5-29.1-37.5c-22.4,0-52,26.6-80,76.5c9.2-38.2,13-75.2-14.3-75.2
		c-5.9,0.1-11.7,1.6-16.9,4.4c-3.6,1.7-5.8,5.4-5.5,9.3c2.6,40.7-32.8,144.8-66.3,144.8c-6.1,0-9.1-6.6-9.1-17.3
		c0-29.4,17.5-91.4,26.3-119.9c1.1-3.7,1.7-6.9,1.7-9.6c0-7.8-4.8-11.8-15.7-11.8c-12,0-25,4.6-37.5,26.6c-4.4-19.5-17.6-28-35.9-28
		c-30.2,0-63.8,31.9-78.6,73.5c-19.8,55.5-59.8,109.1-113.5,109.1c-48.8,0-74.5-40.6-74.5-104.8c0-92.6,68-168.3,118.4-168.3
		c24.1,0,35.6,15.4,35.6,38.9c0,28.5-15.9,41.8-15.9,52.6c0,3.3,2.8,6.6,8.2,6.6c21.9,0,47.7-25.8,47.7-60.9S217.7,0,167.2,0
		C83.9,0,0,83.9,0,191.3c0,85.5,42.2,137.1,115.1,137.1c49.8,0,93.2-38.7,116.7-83.9c2.7,37.4,19.7,57,45.6,57
		c23,0,41.7-13.7,55.9-37.8c5.5,25.2,20,37.6,38.9,37.6c21.7,0,39.8-13.7,57-39.2c-0.3,20,4.3,38.9,21.7,38.9c8.2,0,18-1.9,19.7-9.1
		c18.3-75.6,63.4-137.3,77.3-137.3c4.1,0,5.2,3.9,5.2,8.6c0,20.5-14.5,62.6-14.5,89.5c0,29,12.3,48.2,37.8,48.2
		c28.3,0,57-34.6,76.1-85.2c6,47.3,18.9,85.4,39.2,85.4c24.9,0,69.1-52.4,95.8-107.8c10.5,1.3,26.3,1,41.4-9.7
		c-6.5,16.3-10.2,34.2-10.2,52.1c0,51.5,24.6,65.9,45.7,65.9c23,0,41.6-13.7,55.9-37.8c4.7,21.8,16.7,37.5,38.9,37.5
		c34.6,0,64.7-35.4,64.7-64.4C1024,229.1,1020.7,224.5,1016.9,224.5z M298.5,273c-14,0-19.5-14.1-19.5-35.1
		c0-36.5,24.9-97.3,51.3-97.3c11.5,0,15.9,13.6,15.9,30.2C346.2,207.8,322.5,273,298.5,273z M777.3,164.2
		c-8.3-9.9-11.4-23.4-11.4-35.5c0-14.8,5.4-27.4,11.9-27.4c6.5,0,8.5,6.4,8.5,15.3C786.3,131.5,781,153.3,777.3,164.2z M885.7,273
		c-14,0-19.5-16.2-19.5-35.1c0-35.2,24.9-97.3,51.5-97.3c11.5,0,15.6,13.5,15.6,30.2C933.3,207.8,910,273,885.7,273z"/>
	
		<radialGradient id="SVGID_00000051355329325048153490000000071137459106139274_" cx="0.5413" cy="677.4553" r="0.512" gradientTransform="matrix(588.4999 -474.0003 -324.1069 -402.3982 219686.375 273191.5625)" gradientUnits="userSpaceOnUse">
		<stop  offset="0" style="stop-color:#6420FF"/>
		<stop  offset="1" style="stop-color:#6420FF;stop-opacity:0"/>
	</radialGradient>
	<path style="fill:url(#SVGID_00000051355329325048153490000000071137459106139274_);" d="M1016.9,224.5c-1.7,0-3.3,1.1-4.1,3.5
		c-10.5,30-24.7,47.8-36.4,47.8c-6.7,0-9.4-7.5-9.4-19.2c0-29.3,17.6-91.5,26.4-119.9c1-3.4,1.7-6.5,1.7-9.1
		c0-8.2-4.5-12.3-15.7-12.3c-12,0-25,4.7-37.6,26.8c-4.4-19.5-17.5-28-35.9-28c-21.2,0-41.8,13.7-58.7,35.8
		c-16.9,22.2-36.8,29.4-51.7,25.9c10.8-26.3,14.7-46,14.7-60.6c0-22.9-11.3-36.7-29.6-36.7c-27.8,0-43.8,26.5-43.8,54.4
		c0,21.6,9.8,43.7,31.3,54.5c-18,40.8-44.3,77.6-54.3,77.6c-12.9,0-16.7-63.1-16-108.3c0.5-25.9,2.6-27.2,2.6-35.1
		c0-4.5-2.9-7.6-14.6-7.6c-27.3,0-35.8,23.1-37.1,49.7c-0.4,10.1-2,20.1-4.7,29.8c-11.4,40.8-35,71.7-50.3,71.7
		c-7.1,0-9.1-7.1-9.1-16.4c0-29.3,16.4-66,16.4-97.3c0-23-10.1-37.5-29.1-37.5c-22.4,0-52,26.6-80,76.5c9.2-38.2,13-75.2-14.3-75.2
		c-5.9,0.1-11.7,1.6-16.9,4.4c-3.6,1.7-5.8,5.4-5.5,9.3c2.6,40.7-32.8,144.8-66.3,144.8c-6.1,0-9.1-6.6-9.1-17.3
		c0-29.4,17.5-91.4,26.3-119.9c1.1-3.7,1.7-6.9,1.7-9.6c0-7.8-4.8-11.8-15.7-11.8c-12,0-25,4.6-37.5,26.6c-4.4-19.5-17.6-28-35.9-28
		c-30.2,0-63.8,31.9-78.6,73.5c-19.8,55.5-59.8,109.1-113.5,109.1c-48.8,0-74.5-40.6-74.5-104.8c0-92.6,68-168.3,118.4-168.3
		c24.1,0,35.6,15.4,35.6,38.9c0,28.5-15.9,41.8-15.9,52.6c0,3.3,2.8,6.6,8.2,6.6c21.9,0,47.7-25.8,47.7-60.9S217.7,0,167.2,0
		C83.9,0,0,83.9,0,191.3c0,85.5,42.2,137.1,115.1,137.1c49.8,0,93.2-38.7,116.7-83.9c2.7,37.4,19.7,57,45.6,57
		c23,0,41.7-13.7,55.9-37.8c5.5,25.2,20,37.6,38.9,37.6c21.7,0,39.8-13.7,57-39.2c-0.3,20,4.3,38.9,21.7,38.9c8.2,0,18-1.9,19.7-9.1
		c18.3-75.6,63.4-137.3,77.3-137.3c4.1,0,5.2,3.9,5.2,8.6c0,20.5-14.5,62.6-14.5,89.5c0,29,12.3,48.2,37.8,48.2
		c28.3,0,57-34.6,76.1-85.2c6,47.3,18.9,85.4,39.2,85.4c24.9,0,69.1-52.4,95.8-107.8c10.5,1.3,26.3,1,41.4-9.7
		c-6.5,16.3-10.2,34.2-10.2,52.1c0,51.5,24.6,65.9,45.7,65.9c23,0,41.6-13.7,55.9-37.8c4.7,21.8,16.7,37.5,38.9,37.5
		c34.6,0,64.7-35.4,64.7-64.4C1024,229.1,1020.7,224.5,1016.9,224.5z M298.5,273c-14,0-19.5-14.1-19.5-35.1
		c0-36.5,24.9-97.3,51.3-97.3c11.5,0,15.9,13.6,15.9,30.2C346.2,207.8,322.5,273,298.5,273z M777.3,164.2
		c-8.3-9.9-11.4-23.4-11.4-35.5c0-14.8,5.4-27.4,11.9-27.4c6.5,0,8.5,6.4,8.5,15.3C786.3,131.5,781,153.3,777.3,164.2z M885.7,273
		c-14,0-19.5-16.2-19.5-35.1c0-35.2,24.9-97.3,51.5-97.3c11.5,0,15.6,13.5,15.6,30.2C933.3,207.8,910,273,885.7,273z"/>
	
		<radialGradient id="SVGID_00000102509926511136466160000002483866979901890216_" cx="0.9609" cy="677.0801" r="0.512" gradientTransform="matrix(728.0006 -495.9998 -339.1491 -497.784 228988.9688 337901.7812)" gradientUnits="userSpaceOnUse">
		<stop  offset="0" style="stop-color:#6420FF"/>
		<stop  offset="1" style="stop-color:#6420FF;stop-opacity:0"/>
	</radialGradient>
	<path style="fill:url(#SVGID_00000102509926511136466160000002483866979901890216_);" d="M1016.9,224.5c-1.7,0-3.3,1.1-4.1,3.5
		c-10.5,30-24.7,47.8-36.4,47.8c-6.7,0-9.4-7.5-9.4-19.2c0-29.3,17.6-91.5,26.4-119.9c1-3.4,1.7-6.5,1.7-9.1
		c0-8.2-4.5-12.3-15.7-12.3c-12,0-25,4.7-37.6,26.8c-4.4-19.5-17.5-28-35.9-28c-21.2,0-41.8,13.7-58.7,35.8
		c-16.9,22.2-36.8,29.4-51.7,25.9c10.8-26.3,14.7-46,14.7-60.6c0-22.9-11.3-36.7-29.6-36.7c-27.8,0-43.8,26.5-43.8,54.4
		c0,21.6,9.8,43.7,31.3,54.5c-18,40.8-44.3,77.6-54.3,77.6c-12.9,0-16.7-63.1-16-108.3c0.5-25.9,2.6-27.2,2.6-35.1
		c0-4.5-2.9-7.6-14.6-7.6c-27.3,0-35.8,23.1-37.1,49.7c-0.4,10.1-2,20.1-4.7,29.8c-11.4,40.8-35,71.7-50.3,71.7
		c-7.1,0-9.1-7.1-9.1-16.4c0-29.3,16.4-66,16.4-97.3c0-23-10.1-37.5-29.1-37.5c-22.4,0-52,26.6-80,76.5c9.2-38.2,13-75.2-14.3-75.2
		c-5.9,0.1-11.7,1.6-16.9,4.4c-3.6,1.7-5.8,5.4-5.5,9.3c2.6,40.7-32.8,144.8-66.3,144.8c-6.1,0-9.1-6.6-9.1-17.3
		c0-29.4,17.5-91.4,26.3-119.9c1.1-3.7,1.7-6.9,1.7-9.6c0-7.8-4.8-11.8-15.7-11.8c-12,0-25,4.6-37.5,26.6c-4.4-19.5-17.6-28-35.9-28
		c-30.2,0-63.8,31.9-78.6,73.5c-19.8,55.5-59.8,109.1-113.5,109.1c-48.8,0-74.5-40.6-74.5-104.8c0-92.6,68-168.3,118.4-168.3
		c24.1,0,35.6,15.4,35.6,38.9c0,28.5-15.9,41.8-15.9,52.6c0,3.3,2.8,6.6,8.2,6.6c21.9,0,47.7-25.8,47.7-60.9S217.7,0,167.2,0
		C83.9,0,0,83.9,0,191.3c0,85.5,42.2,137.1,115.1,137.1c49.8,0,93.2-38.7,116.7-83.9c2.7,37.4,19.7,57,45.6,57
		c23,0,41.7-13.7,55.9-37.8c5.5,25.2,20,37.6,38.9,37.6c21.7,0,39.8-13.7,57-39.2c-0.3,20,4.3,38.9,21.7,38.9c8.2,0,18-1.9,19.7-9.1
		c18.3-75.6,63.4-137.3,77.3-137.3c4.1,0,5.2,3.9,5.2,8.6c0,20.5-14.5,62.6-14.5,89.5c0,29,12.3,48.2,37.8,48.2
		c28.3,0,57-34.6,76.1-85.2c6,47.3,18.9,85.4,39.2,85.4c24.9,0,69.1-52.4,95.8-107.8c10.5,1.3,26.3,1,41.4-9.7
		c-6.5,16.3-10.2,34.2-10.2,52.1c0,51.5,24.6,65.9,45.7,65.9c23,0,41.6-13.7,55.9-37.8c4.7,21.8,16.7,37.5,38.9,37.5
		c34.6,0,64.7-35.4,64.7-64.4C1024,229.1,1020.7,224.5,1016.9,224.5z M298.5,273c-14,0-19.5-14.1-19.5-35.1
		c0-36.5,24.9-97.3,51.3-97.3c11.5,0,15.9,13.6,15.9,30.2C346.2,207.8,322.5,273,298.5,273z M777.3,164.2
		c-8.3-9.9-11.4-23.4-11.4-35.5c0-14.8,5.4-27.4,11.9-27.4c6.5,0,8.5,6.4,8.5,15.3C786.3,131.5,781,153.3,777.3,164.2z M885.7,273
		c-14,0-19.5-16.2-19.5-35.1c0-35.2,24.9-97.3,51.5-97.3c11.5,0,15.6,13.5,15.6,30.2C933.3,207.8,910,273,885.7,273z"/>
	
		<radialGradient id="SVGID_00000026145731692902322860000001097812858309479307_" cx="0.9864" cy="676.8449" r="0.512" gradientTransform="matrix(1699.9954 375.999 461.1489 -2084.9814 -313704.8125 1410868.5)" gradientUnits="userSpaceOnUse">
		<stop  offset="0" style="stop-color:#00C4CC;stop-opacity:0.7259"/>
		<stop  offset="0" style="stop-color:#00C4CC"/>
		<stop  offset="1" style="stop-color:#00C4CC;stop-opacity:0"/>
	</radialGradient>
	<path style="fill:url(#SVGID_00000026145731692902322860000001097812858309479307_);" d="M1016.9,224.5c-1.7,0-3.3,1.1-4.1,3.5
		c-10.5,30-24.7,47.8-36.4,47.8c-6.7,0-9.4-7.5-9.4-19.2c0-29.3,17.6-91.5,26.4-119.9c1-3.4,1.7-6.5,1.7-9.1
		c0-8.2-4.5-12.3-15.7-12.3c-12,0-25,4.7-37.6,26.8c-4.4-19.5-17.5-28-35.9-28c-21.2,0-41.8,13.7-58.7,35.8
		c-16.9,22.2-36.8,29.4-51.7,25.9c10.8-26.3,14.7-46,14.7-60.6c0-22.9-11.3-36.7-29.6-36.7c-27.8,0-43.8,26.5-43.8,54.4
		c0,21.6,9.8,43.7,31.3,54.5c-18,40.8-44.3,77.6-54.3,77.6c-12.9,0-16.7-63.1-16-108.3c0.5-25.9,2.6-27.2,2.6-35.1
		c0-4.5-2.9-7.6-14.6-7.6c-27.3,0-35.8,23.1-37.1,49.7c-0.4,10.1-2,20.1-4.7,29.8c-11.4,40.8-35,71.7-50.3,71.7
		c-7.1,0-9.1-7.1-9.1-16.4c0-29.3,16.4-66,16.4-97.3c0-23-10.1-37.5-29.1-37.5c-22.4,0-52,26.6-80,76.5c9.2-38.2,13-75.2-14.3-75.2
		c-5.9,0.1-11.7,1.6-16.9,4.4c-3.6,1.7-5.8,5.4-5.5,9.3c2.6,40.7-32.8,144.8-66.3,144.8c-6.1,0-9.1-6.6-9.1-17.3
		c0-29.4,17.5-91.4,26.3-119.9c1.1-3.7,1.7-6.9,1.7-9.6c0-7.8-4.8-11.8-15.7-11.8c-12,0-25,4.6-37.5,26.6c-4.4-19.5-17.6-28-35.9-28
		c-30.2,0-63.8,31.9-78.6,73.5c-19.8,55.5-59.8,109.1-113.5,109.1c-48.8,0-74.5-40.6-74.5-104.8c0-92.6,68-168.3,118.4-168.3
		c24.1,0,35.6,15.4,35.6,38.9c0,28.5-15.9,41.8-15.9,52.6c0,3.3,2.8,6.6,8.2,6.6c21.9,0,47.7-25.8,47.7-60.9S217.7,0,167.2,0
		C83.9,0,0,83.9,0,191.3c0,85.5,42.2,137.1,115.1,137.1c49.8,0,93.2-38.7,116.7-83.9c2.7,37.4,19.7,57,45.6,57
		c23,0,41.7-13.7,55.9-37.8c5.5,25.2,20,37.6,38.9,37.6c21.7,0,39.8-13.7,57-39.2c-0.3,20,4.3,38.9,21.7,38.9c8.2,0,18-1.9,19.7-9.1
		c18.3-75.6,63.4-137.3,77.3-137.3c4.1,0,5.2,3.9,5.2,8.6c0,20.5-14.5,62.6-14.5,89.5c0,29,12.3,48.2,37.8,48.2
		c28.3,0,57-34.6,76.1-85.2c6,47.3,18.9,85.4,39.2,85.4c24.9,0,69.1-52.4,95.8-107.8c10.5,1.3,26.3,1,41.4-9.7
		c-6.5,16.3-10.2,34.2-10.2,52.1c0,51.5,24.6,65.9,45.7,65.9c23,0,41.6-13.7,55.9-37.8c4.7,21.8,16.7,37.5,38.9,37.5
		c34.6,0,64.7-35.4,64.7-64.4C1024,229.1,1020.7,224.5,1016.9,224.5z M298.5,273c-14,0-19.5-14.1-19.5-35.1
		c0-36.5,24.9-97.3,51.3-97.3c11.5,0,15.9,13.6,15.9,30.2C346.2,207.8,322.5,273,298.5,273z M777.3,164.2
		c-8.3-9.9-11.4-23.4-11.4-35.5c0-14.8,5.4-27.4,11.9-27.4c6.5,0,8.5,6.4,8.5,15.3C786.3,131.5,781,153.3,777.3,164.2z M885.7,273
		c-14,0-19.5-16.2-19.5-35.1c0-35.2,24.9-97.3,51.5-97.3c11.5,0,15.6,13.5,15.6,30.2C933.3,207.8,910,273,885.7,273z"/>
</g>
</svg>
